<?xml version="1.0" encoding="utf-8"?>
<!-- Generator: Adobe Illustrator 16.0.0, SVG Export Plug-In . SVG Version: 6.00 Build 0)  -->
<!DOCTYPE svg PUBLIC "-//W3C//DTD SVG 1.1//EN" "http://www.w3.org/Graphics/SVG/1.1/DTD/svg11.dtd">
<svg version="1.1" id="Layer_1" xmlns="http://www.w3.org/2000/svg" xmlns:xlink="http://www.w3.org/1999/xlink" x="0px" y="0px"
	 width="135px" height="135px" viewBox="0 0 135 135" style="enable-background:new 0 0 135 135;" xml:space="preserve">
<style type="text/css">
<![CDATA[
	.st0{fill:#465652;}
	.st1{fill:#AAB9BA;}
	.st2{fill:#47C67B;}
	.st3{fill:#AAC8D1;}
	.st4{fill:none;stroke:#E83834;stroke-width:6;stroke-linecap:round;stroke-linejoin:round;stroke-miterlimit:10;}
	.st5{fill:#7BC67B;}
	.st6{fill:#7BC7FF;}
	.st7{fill:#7C34C1;}
	.st8{fill:#7C8D96;}
	.st9{fill:#AD2707;}
	.st10{fill:#ADB8BC;}
	.st11{fill:#107510;}
	.st12{fill:#7FE5D8;}
	.st13{fill:#AF4AD1;}
	.st14{fill:#E02B7E;}
	.st15{fill:#E04038;}
	.st16{fill:#AFD7DD;}
	.st17{fill:#E0A010;}
	.st18{fill:#E0D5A4;}
	.st19{fill:#12B2B2;}
	.st20{fill:#12D66B;}
	.st21{fill:#E1A9FF;}
	.st22{fill:#1362A8;}
	.st23{fill:#E2378D;}
	.st24{fill:#E29C37;}
	.st25{fill:#E2B90E;}
	.st26{fill:#E2BF91;}
	.st27{fill:#E2CBAA;}
	.st28{fill:#14A594;}
	.st29{fill:#E4E9ED;}
	.st30{fill:#4A5D60;}
	.st31{fill:#E5B076;}
	.st32{fill:#E5B1C4;}
	.st33{fill:#E5E4C3;}
	.st34{fill:#4B6466;}
	.st35{fill:#E6FF2E;}
	.st36{fill:#18AA67;}
	.st37{fill:#E86207;}
	.st38{fill:#E8A113;}
	.st39{fill:#E8B5A6;}
	.st40{fill:#E8E8ED;}
	.st41{fill:#4E5154;}
	.st42{fill:#E9F1F4;}
	.st43{fill:#4F4B48;}
	.st44{fill:#4F74E8;}
	.st45{fill:#808E93;}
	.st46{fill:#80949B;}
	.st47{fill:#80EDAC;}
	.st48{fill:#B122E0;}
	.st49{fill:#B2C4CC;}
	.st50{fill:#83D839;}
	.st51{fill:#B3C6C6;}
	.st52{fill:none;stroke:#33363A;stroke-width:3;stroke-linecap:round;stroke-linejoin:round;stroke-miterlimit:10;}
	.st53{fill:#1A8E1C;}
	.st54{fill:#1A93D6;}
	.st55{fill:#B50B0B;}
	.st56{fill:#1AD88F;}
	.st57{fill:#B5DAF4;}
	.st58{fill:#EA7B1F;}
	.st59{fill:#EA81BD;}
	.st60{fill:#87B8D6;}
	.st61{fill:#87C3F4;}
	.st62{fill:#EAC79D;}
	.st63{fill:#EADF11;}
	.st64{fill:#EAE4C5;}
	.st65{fill:#B78094;}
	.st66{fill:#8844D8;}
	.st67{fill:#EBF4F7;}
	.st68{fill:#893015;}
	.st69{fill:#89410B;}
	.st70{fill:#899BA3;}
	.st71{fill:#EDE3B9;}
	.st72{enable-background:new    ;}
	.st73{fill:#50FF9F;}
	.st74{fill:#EEDCF4;}
	.st75{fill:#EFA37D;}
	.st76{fill:#EFA3CC;}
	.st77{fill:#EFC99A;}
	.st78{fill:#54AF79;}
	.st79{fill:#BA503A;}
	.st80{fill:#BA8663;}
	.st81{fill:#8B4FE0;}
	.st82{fill:#58ED9B;}
	.st83{fill:#BC7DFF;}
	.st84{fill:#8D9AA3;}
	.st85{fill:#BCCAD3;}
	.st86{fill:#8DE4FF;}
	.st87{fill:#20B518;}
	.st88{fill:#BF44F2;}
	.st89{fill:#21CEA1;}
	.st90{fill:#BFDAE0;}
	.st91{fill:#F0FBFC;}
	.st92{fill:#F2D9A7;}
	.st93{fill:#F2EAC9;}
	.st94{fill:#24D1AF;}
	.st95{fill:#25931C;}
	.st96{fill:#F4C4B3;}
	.st97{fill:#F4D3A2;}
	.st98{fill:#F4D647;}
	.st99{fill:#F4D7B8;}
	.st100{fill:#F4EC8E;}
	.st101{fill:#5B524D;}
	.st102{fill:#F77819;}
	.st103{fill:#F79AE1;}
	.st104{fill:#5E707A;}
	.st105{fill:#F93585;}
	.st106{fill:#F95D5D;}
	.st107{fill:#F9C19B;}
	.st108{fill:#F9CB58;}
	.st109{fill:#F9D2B2;}
	.st110{fill:#F9F07D;}
	.st111{fill:#F9F1D2;}
	.st112{fill:#F9F4B7;}
	.st113{fill:#F9F9E4;}
	.st114{fill:#5F1DAA;}
	.st115{fill:#5F9AD6;}
	.st116{fill:#C0C0C4;}
	.st117{fill:#91EA57;}
	.st118{fill:#C12727;}
	.st119{fill:#C191A0;}
	.st120{fill:#923BB7;}
	.st121{fill:#93A0A3;}
	.st122{fill:#93F9EA;}
	.st123{fill:#93FF5A;}
	.st124{fill:#C4833D;}
	.st125{fill:#95A2A5;}
	.st126{fill:#965514;}
	.st127{fill:#96562C;}
	.st128{fill:#2AF42F;}
	.st129{fill:#C5D7DD;}
	.st130{fill:#C68510;}
	.st131{fill:#C6A86D;}
	.st132{fill:#C6BB8D;}
	.st133{fill:#2C9DCE;}
	.st134{fill:#FBFCF2;}
	.st135{fill:#FC70B0;}
	.st136{fill:#FCE6C8;}
	.st137{fill:#FCF7E3;}
	.st138{fill:#C90D6B;}
	.st139{fill:#FDFEFF;}
	.st140{fill:#FDFFDC;}
	.st141{fill:#FF1A1A;}
	.st142{fill:#FF5252;}
	.st143{fill:#FF5B00;}
	.st144{fill:#FF6155;}
	.st145{fill:#FF630D;}
	.st146{fill:#FF6666;}
	.st147{fill:#FF7676;}
	.st148{fill:#FF7900;}
	.st149{fill:#FF860D;}
	.st150{fill:#FF8B00;}
	.st151{fill:#FF8F8F;}
	.st152{fill:#FF900B;}
	.st153{fill:#FF908A;}
	.st154{fill:#FF960B;}
	.st155{fill:#FF9C0D;}
	.st156{fill:#FFA9D4;}
	.st157{fill:#FFAA00;}
	.st158{fill:#FFAD40;}
	.st159{fill:#FFAF10;}
	.st160{fill:#FFB000;}
	.st161{fill:#FFBE08;}
	.st162{fill:#FFBF31;}
	.st163{fill:#FFC200;}
	.st164{fill:#FFCAE8;}
	.st165{fill:#FFCCF5;}
	.st166{fill:#FFD00B;}
	.st167{fill:#FFD039;}
	.st168{fill:#FFD400;}
	.st169{fill:#FFD833;}
	.st170{fill:#FFDB80;}
	.st171{fill:#FFDDD2;}
	.st172{fill:#FFE6D4;}
	.st173{fill:#FFE6EB;}
	.st174{fill:#FFE98D;}
	.st175{fill:#FFECD2;}
	.st176{fill:#FFF1D9;}
	.st177{fill:#FFF24D;}
	.st178{fill:#FFF3C2;}
	.st179{fill:#FFF4C7;}
	.st180{fill:#FFF800;}
	.st181{fill:#FFF80D;}
	.st182{fill:#FFF9DE;}
	.st183{fill:#FFFBD7;}
	.st184{fill:#FFFBEB;}
	.st185{fill:#FFFCC0;}
	.st186{fill:#FFFCDC;}
	.st187{fill:#FFFFFA;}
	.st188{fill:#FFFFFF;}
	.st189{fill:#63797F;}
	.st190{fill:#65E529;}
	.st191{fill:#66310E;}
	.st192{fill:#663C17;}
	.st193{fill:#9A5AE5;}
	.st194{fill:#CA30EF;}
	.st195{fill:#6892FC;}
	.st196{fill:#9CFFC4;}
	.st197{fill:#CC4306;}
	.st198{fill:#CC549E;}
	.st199{fill:#9E3256;}
	.st200{fill:#CDFFBB;}
	.st201{fill:#CE86AF;}
	.st202{fill:#CED9DD;}
	
		.st203{fill:none;stroke:#33363A;stroke-width:3;stroke-linecap:round;stroke-linejoin:round;stroke-miterlimit:10;stroke-dasharray:6;}
	.st204{fill:#CFE1E2;}
	.st205{fill:#33363A;}
	.st206{fill:#34C166;}
	.st207{fill:#364B5B;}
	.st208{fill:#3662CE;}
	.st209{fill:#36C6FF;}
	.st210{fill:#6ADB9A;}
	.st211{fill:#6D5C4D;}
	.st212{fill:#6EBDF9;}
	.st213{fill:#0031FF;}
	.st214{fill:#0062FF;}
	.st215{fill:#0068FF;}
	.st216{fill:#0086FF;}
	.st217{fill:#009BE8;}
	.st218{fill:#00AAFF;}
	.st219{fill:#D271FF;}
	.st220{fill:#D363A9;}
	.st221{fill:#D3964C;}
	.st222{fill:#D3DFE2;}
	.st223{fill:#D3E0E2;}
	.st224{fill:#D3EFF4;}
	.st225{fill:#063B66;}
	.st226{fill:#D60909;}
	.st227{fill:#D61D1D;}
	.st228{fill:#D7F0FF;}
	.st229{fill:#09B285;}
	.st230{fill:#D8D593;}
	.st231{fill:#D8E2EA;}
	.st232{fill:#D8E5EA;}
	.st233{fill:#3E5054;}
	.st234{fill:#D988FF;}
	.st235{fill:#D9E7E8;}
	.st236{fill:#702252;}
	.st237{fill:#70D3E0;}
	.st238{fill:#A02FF2;}
	.st239{fill:#A2F255;}
	.st240{fill:#A35616;}
	.st241{fill:#A3CCCC;}
	.st242{fill:#0A6ADD;}
	.st243{fill:#A5145D;}
	.st244{fill:#A57555;}
	.st245{fill:#77D6FC;}
	.st246{fill:#7815CE;}
	.st247{fill:#A7BBC1;}
	.st248{fill:#DBD279;}
	.st249{fill:#0D5C9E;}
	.st250{fill:#A83C11;}
	.st251{fill:#A8633D;}
	.st252{fill:#A8A3E5;}
	.st253{fill:#DCE6EA;}
	.st254{fill:#DCE7EA;}
	.st255{fill:#A962E8;}
	.st256{fill:#DD2466;}
	.st257{fill:#DDC38A;}
	.st258{fill:#DDD2B1;}
	.st259{fill:#DFE7E8;}
	.st260{fill:#42B1E8;}
	.st261{fill:#436377;}
	.st262{fill:#43B530;}
]]>
</style>
<g>
	<g>
		<g>
			<g>
				<path class="st117" d="M99.174,121.576c-8.547,5.938-19.053,6.906-28.129,3.555c0.023-9.676,4.596-19.186,13.143-25.123
					c8.547-5.939,19.055-6.908,28.129-3.555C112.295,106.127,107.721,115.637,99.174,121.576z"/>
			</g>
			<g>
				<path class="st206" d="M112.316,96.453c-0.021,9.674-4.596,19.184-13.143,25.123c-8.547,5.938-19.053,6.906-28.129,3.555"/>
			</g>
			<g>
				<path class="st205" d="M81.744,128.545c-3.839,0-7.613-0.676-11.219-2.007c-0.591-0.218-0.982-0.781-0.98-1.411
					c0.025-10.521,5.18-20.371,13.787-26.351c5.401-3.754,11.725-5.738,18.284-5.738c3.84,0,7.614,0.676,11.22,2.008
					c0.591,0.219,0.981,0.781,0.98,1.41c-0.023,10.518-5.177,20.369-13.786,26.352C94.628,126.561,88.305,128.545,81.744,128.545z
					 M72.566,124.073c2.967,0.977,6.049,1.472,9.178,1.472c5.945,0,11.677-1.799,16.574-5.2
					c7.515-5.223,12.125-13.698,12.477-22.835c-2.967-0.977-6.049-1.472-9.179-1.472c-5.945,0-11.676,1.799-16.572,5.201
					C77.53,106.459,72.92,114.935,72.566,124.073z"/>
			</g>
			<g>
				<path class="st205" d="M68.05,128.713c-0.475,0-0.941-0.225-1.232-0.645c-0.473-0.68-0.305-1.614,0.376-2.087l41.869-29.092
					c0.679-0.474,1.614-0.306,2.087,0.376c0.473,0.68,0.305,1.614-0.376,2.087l-41.869,29.092
					C68.644,128.626,68.346,128.713,68.05,128.713z"/>
			</g>
		</g>
		<g>
			<g>
				<path class="st117" d="M35.826,121.576c8.549,5.938,19.055,6.906,28.129,3.555c-0.021-9.676-4.596-19.186-13.143-25.123
					c-8.547-5.939-19.055-6.908-28.129-3.555C22.707,106.127,27.279,115.637,35.826,121.576z"/>
			</g>
			<g>
				<path class="st206" d="M22.684,96.453c0.023,9.674,4.596,19.184,13.143,25.123c8.549,5.938,19.055,6.906,28.129,3.555"/>
			</g>
			<g>
				<path class="st205" d="M53.259,128.545c-0.001,0-0.001,0-0.002,0c-6.561-0.001-12.884-1.984-18.286-5.736
					c-8.607-5.982-13.762-15.833-13.787-26.352c-0.002-0.63,0.39-1.192,0.98-1.411c3.605-1.332,7.38-2.008,11.22-2.008
					c6.56,0,12.883,1.984,18.285,5.738c8.608,5.98,13.763,15.832,13.786,26.352c0.001,0.629-0.39,1.192-0.98,1.41
					C60.87,127.869,57.096,128.545,53.259,128.545z M24.205,97.51c0.354,9.138,4.964,17.613,12.478,22.835
					c4.897,3.401,10.629,5.199,16.575,5.2h0.001c3.128,0,6.209-0.495,9.175-1.472c-0.352-9.138-4.962-17.613-12.477-22.834
					c-4.897-3.402-10.628-5.201-16.573-5.201C30.254,96.038,27.172,96.533,24.205,97.51z"/>
			</g>
			<g>
				<path class="st205" d="M66.95,128.713c-0.296,0-0.594-0.087-0.854-0.269L24.227,99.353c-0.681-0.473-0.849-1.407-0.376-2.087
					c0.473-0.683,1.407-0.85,2.087-0.376l41.869,29.092c0.681,0.473,0.849,1.407,0.376,2.087
					C67.892,128.488,67.425,128.713,66.95,128.713z"/>
			</g>
		</g>
	</g>
	<g>
		<g>
			<path class="st192" d="M63.549,129.602V83.686c0-2.182,1.768-3.951,3.951-3.951l0,0c2.184,0,3.953,1.77,3.953,3.951v45.916"/>
		</g>
		<g>
			<path class="st205" d="M71.453,131.102c-0.828,0-1.5-0.672-1.5-1.5V83.686c0-1.352-1.101-2.451-2.453-2.451
				c-1.352,0-2.451,1.1-2.451,2.451v45.916c0,0.828-0.672,1.5-1.5,1.5s-1.5-0.672-1.5-1.5V83.686c0-3.006,2.445-5.451,5.451-5.451
				c3.007,0,5.453,2.445,5.453,5.451v45.916C72.953,130.43,72.281,131.102,71.453,131.102z"/>
		</g>
	</g>
	<g>
		<g>
			<g>
				<g>
					<path class="st185" d="M116.709,50.857c0,20.676-22.031,37.441-49.209,37.441S18.291,71.533,18.291,50.857
						c0-20.68,22.031-45.459,49.209-45.459S116.709,30.178,116.709,50.857z"/>
				</g>
				<g>
					<path class="st180" d="M116.709,50.857c0,20.676-22.031,37.441-49.209,37.441S18.291,71.533,18.291,50.857
						c0-20.68,22.031-34.928,49.209-34.928S116.709,30.178,116.709,50.857z"/>
				</g>
				<g>
					<path class="st185" d="M77.979,67.484c0,1.393-4.691,1.643-10.477,1.643c-5.787,0-10.479-0.25-10.479-1.643
						c0-1.395,4.691-5.037,10.479-5.037C73.287,62.447,77.979,66.09,77.979,67.484z"/>
				</g>
				<g>
					<path class="st63" d="M116.709,50.857c0,20.676-22.031,37.441-49.209,37.441S18.291,71.533,18.291,50.857
						c0-20.682,6.262,18.34,49.209,18.34S116.709,30.176,116.709,50.857z"/>
				</g>
				<g>
					<path class="st205" d="M67.5,89.799c-27.961,0-50.709-17.469-50.709-38.941c0-21.27,22.619-46.959,50.709-46.959
						c13.041,0,25.772,5.472,35.85,15.406c9.305,9.174,14.859,20.97,14.859,31.553C118.209,72.33,95.461,89.799,67.5,89.799z
						 M67.5,6.898c-26.428,0-47.709,24.048-47.709,43.959c0,19.818,21.402,35.941,47.709,35.941s47.709-16.123,47.709-35.941
						C115.209,30.946,93.928,6.898,67.5,6.898z"/>
				</g>
			</g>
			<g>
				<g>
					<g>
						<g>
							<g>
								<path class="st211" d="M51.338,54.725c0,4.449-3.605,8.051-8.053,8.051c-4.445,0-8.051-3.602-8.051-8.051
									c0-4.447,3.605-8.051,8.051-8.051C47.732,46.674,51.338,50.277,51.338,54.725z"/>
							</g>
							<g>
								<path class="st205" d="M51.338,54.725c0,4.449-3.605,1.664-8.053,1.664c-4.445,0-8.051,2.785-8.051-1.664
									c0-4.447,3.605-8.051,8.051-8.051C47.732,46.674,51.338,50.277,51.338,54.725z"/>
							</g>
							<g>
								<path class="st205" d="M43.285,64.275c-5.267,0-9.551-4.284-9.551-9.551s4.284-9.551,9.551-9.551
									c5.268,0,9.553,4.284,9.553,9.551S48.553,64.275,43.285,64.275z M43.285,48.174c-3.612,0-6.551,2.938-6.551,6.551
									s2.938,6.551,6.551,6.551c3.613,0,6.553-2.938,6.553-6.551S46.898,48.174,43.285,48.174z"/>
							</g>
						</g>
						<g>
							<g>
								<circle class="st188" cx="39.282" cy="52.107" r="3.28"/>
							</g>
							<g>
								<path class="st205" d="M39.281,56.889c-2.636,0-4.779-2.145-4.779-4.781c0-2.636,2.144-4.779,4.779-4.779
									c2.637,0,4.781,2.144,4.781,4.779C44.062,54.744,41.918,56.889,39.281,56.889z M39.281,50.328
									c-0.981,0-1.779,0.798-1.779,1.779c0,0.982,0.798,1.781,1.779,1.781c0.982,0,1.781-0.799,1.781-1.781
									C41.062,51.126,40.264,50.328,39.281,50.328z"/>
							</g>
						</g>
					</g>
					<g>
						<g>
							<g>
								<path class="st211" d="M99.766,54.725c0,4.449-3.605,8.051-8.051,8.051c-4.447,0-8.053-3.602-8.053-8.051
									c0-4.447,3.605-8.051,8.053-8.051C96.16,46.674,99.766,50.277,99.766,54.725z"/>
							</g>
							<g>
								<path class="st205" d="M99.766,54.725c0,4.449-3.605,1.664-8.051,1.664c-4.447,0-8.053,2.785-8.053-1.664
									c0-4.447,3.605-8.051,8.053-8.051C96.16,46.674,99.766,50.277,99.766,54.725z"/>
							</g>
							<g>
								<path class="st205" d="M91.715,64.275c-5.268,0-9.553-4.284-9.553-9.551s4.285-9.551,9.553-9.551
									c5.267,0,9.551,4.284,9.551,9.551S96.981,64.275,91.715,64.275z M91.715,48.174c-3.613,0-6.553,2.938-6.553,6.551
									s2.939,6.551,6.553,6.551c3.612,0,6.551-2.938,6.551-6.551S95.327,48.174,91.715,48.174z"/>
							</g>
						</g>
						<g>
							<g>
								<circle class="st188" cx="87.71" cy="52.107" r="3.28"/>
							</g>
							<g>
								<path class="st205" d="M87.709,56.889c-2.636,0-4.779-2.145-4.779-4.781c0-2.636,2.144-4.779,4.779-4.779
									c2.637,0,4.781,2.144,4.781,4.779C92.49,54.744,90.346,56.889,87.709,56.889z M87.709,50.328
									c-0.981,0-1.779,0.798-1.779,1.779c0,0.982,0.798,1.781,1.779,1.781c0.982,0,1.781-0.799,1.781-1.781
									C89.49,51.126,88.691,50.328,87.709,50.328z"/>
							</g>
						</g>
					</g>
				</g>
			</g>
		</g>
	</g>
	<g>
		<g>
			<path class="st38" d="M89.375,90.537c0,2.209-1.789,4-4,4h-35.75c-2.209,0-4-1.791-4-4V71.465c0-2.209,1.791-4,4-4h35.75
				c2.211,0,4,1.791,4,4V90.537z"/>
		</g>
		<g>
			<path class="st130" d="M85.375,73.158h-35.75c-2.209,0-4,1.791-4,4v13.379c0,2.209,1.791,4,4,4h35.75c2.211,0,4-1.791,4-4V77.158
				C89.375,74.949,87.586,73.158,85.375,73.158z"/>
		</g>
		<g>
			<path class="st205" d="M85.375,96.037h-35.75c-3.032,0-5.5-2.468-5.5-5.5V71.465c0-3.032,2.468-5.5,5.5-5.5h35.75
				c3.032,0,5.5,2.468,5.5,5.5v19.072C90.875,93.569,88.407,96.037,85.375,96.037z M49.625,68.965c-1.379,0-2.5,1.121-2.5,2.5
				v19.072c0,1.379,1.121,2.5,2.5,2.5h35.75c1.379,0,2.5-1.121,2.5-2.5V71.465c0-1.379-1.121-2.5-2.5-2.5H49.625z"/>
		</g>
	</g>
	<g>
		<g>
			<path class="st126" d="M80.092,86.215c0,1.158-0.938,2.098-2.098,2.098H57.006c-1.158,0-2.098-0.939-2.098-2.098V76.209
				c0-1.158,0.939-2.098,2.098-2.098h20.988c1.16,0,2.098,0.939,2.098,2.098V86.215z"/>
		</g>
		<g>
			<path class="st192" d="M77.994,74.111H57.006c-1.158,0-2.098,0.939-2.098,2.098v3.551c0,1.158,0.939,2.098,2.098,2.098h20.988
				c1.16,0,2.098-0.939,2.098-2.098v-3.551C80.092,75.051,79.154,74.111,77.994,74.111z"/>
		</g>
		<g>
			<path class="st205" d="M77.994,89.812H57.006c-1.983,0-3.598-1.614-3.598-3.598V76.209c0-1.983,1.614-3.598,3.598-3.598h20.988
				c1.983,0,3.598,1.614,3.598,3.598v10.006C81.592,88.198,79.978,89.812,77.994,89.812z M57.006,75.611
				c-0.329,0-0.598,0.269-0.598,0.598v10.006c0,0.329,0.269,0.598,0.598,0.598h20.988c0.329,0,0.598-0.269,0.598-0.598V76.209
				c0-0.329-0.269-0.598-0.598-0.598H57.006z"/>
		</g>
	</g>
</g>
</svg>
